<?xml version="1.0" standalone="no"?>
<!DOCTYPE svg PUBLIC "-//W3C//DTD SVG 1.1//EN" "http://www.w3.org/Graphics/SVG/1.1/DTD/svg11.dtd">
<svg xmlns="http://www.w3.org/2000/svg">
<defs >
<font id="Jost" horiz-adv-x="531" ><font-face
    font-family="Jost Thin"
    units-per-em="1000"
    panose-1="0 0 0 0 0 0 0 0 0 0"
    ascent="1070"
    descent="-375"
    alphabetic="0" />
<glyph unicode=" " horiz-adv-x="301" />
<glyph unicode="!" horiz-adv-x="254" d="M213 700L131 201H137L227 700H213ZM89 1Q89 -4 92 -7T100 -10Q105 -10 108 -7T111 1Q111 6 108 9T100 12Q96 12 93 9T89 1Z" />
<glyph unicode="&quot;" horiz-adv-x="391" d="M227 700L134 421H141L240 700H227ZM402 700L309 421H316L415 700H402Z" />
<glyph unicode="#" horiz-adv-x="554" d="M123 454H250H253H455H459H571L573 465H125L123 454ZM48 240H496L497 251H374H368H171H166H50L48 240ZM549 700L451 462L450 458L364 246L363 244L263 0H274L560 700H549ZM345 700L60 0L71 1L170 243V244L257 458L259
462L356 700H345Z" />
<glyph unicode="$" horiz-adv-x="563" d="M350 818L331 701H341L360 818H350ZM226 -2L208 -112H218L236 -2H226ZM484 548L494 550Q489 588 472 624T422 684T337 708Q291 708 250 688T180 632T145 550Q138 500 160 464T221 402T298 359Q335 343 367 318T418 258T430
175Q423 126 398 88T331 27T231 4Q174 5 140 34T88 107T62 197L52 193Q60 146 79 100T134 24T230 -7Q292 -7 336 17T407 83T440 175Q447 225 429 262T378 325T304 368Q275 381 247 397T196 436T162 486T156 550Q163 592 189 625T254 678T336 697Q385 697 415 675T462
618T484 548Z" />
<glyph unicode="%" horiz-adv-x="680" d="M102 561Q96 522 108 488T149 433T221 411Q265 411 301 431T360 485T390 560Q396 599 384 633T344 688T271 710Q228 710 192 690T133 635T102 561ZM112 560Q119 597 141 629T196 680T271 700Q312 700 338 680T375 628T380
560Q374 523 352 491T297 440T222 420Q181 420 155 440T118 493T112 560ZM356 141Q350 102 362 68T403 13T475 -9Q519 -9 554 11T614 65T644 140Q650 179 638 213T598 268T525 290Q481 290 445 270T386 215T356 141ZM366 140Q372 177 394 209T449 260T524 280Q565
280 591 260T628 208T634 140Q628 103 606 71T550 20T475 0Q434 0 408 20T371 73T366 140ZM649 699L85 0H97L661 699H649Z" />
<glyph unicode="&amp;" horiz-adv-x="655" d="M226 427L525 0H538L234 435Q221 455 211 476T196 522T195 576Q201 610 222 638T276 684T352 701Q392 700 416 681T451 633T456 574Q450 539 426 510T367 455T292 407Q266 393 236 378T174 344T117 301T72 246T48
173Q41 118 61 77T123 14T220 -9Q289 -9 345 22T449 102T540 206T625 310L617 316Q576 268 534 213T445 110T342 31T220 1Q168 1 129 22T70 82T58 173Q65 223 91 257T152 317T226 361T298 400Q340 424 375 449T435 505T466 574Q471 607 460 638T422 690T352 711Q307
712 272 694T214 646T185 577Q181 546 185 520T201 472T226 427Z" />
<glyph unicode="&apos;" horiz-adv-x="216" d="M227 700L134 421H141L240 700H227Z" />
<glyph unicode="(" horiz-adv-x="233" d="M303 780Q229 670 182 546T115 290Q96 167 103 43T151 -200H156Q122 -78 114 44T125 290Q145 421 191 543T308 780H303Z" />
<glyph unicode=")" horiz-adv-x="233" d="M-14 -199Q60 -89 107 35T174 290Q192 414 185 538T137 780H132Q167 658 174 536T163 290Q143 160 97 38T-19 -199H-14Z" />
<glyph unicode="*" horiz-adv-x="575" d="M520 585L348 529L350 523L521 573L520 585ZM431 387L352 527L347 522L421 380L431 387ZM230 381L351 522L348 527L221 388L230 381ZM195 573L349 523L353 528L200 585L195 573ZM375 700L346 526H352L387 700H375Z" />
<glyph unicode="+" horiz-adv-x="534" d="M79 250H477L479 260H80L79 250ZM313 480L235 31H245L323 480H313Z" />
<glyph unicode="," horiz-adv-x="268" d="M160 93L13 -158L19 -160L170 88L160 93Z" />
<glyph unicode="-" horiz-adv-x="204" d="M23 265H217L219 275H25L23 265Z" />
<glyph unicode="." horiz-adv-x="252" d="M88 1Q88 -3 91 -6T99 -10Q104 -10 107 -7T110 1Q110 6 107 9T99 12Q95 12 92 9T88 1Z" />
<glyph unicode="/" horiz-adv-x="461" d="M528 700L-39 -149H-27L540 699L528 700Z" />
<glyph unicode="0" horiz-adv-x="534" d="M97 350Q106 410 127 471T181 585T259 668T360 700Q405 700 434 678T480 618T503 534T508 441T502 350Q494 290 473 229T419 115T340 32T239 0Q194 0 165 22T120 82T97 166T91 260T97 350ZM86 350Q81 305 81 256T87 159T111
74T160 14T239 -9Q298 -9 344 22T426 106T482 223T513 350Q518 396 519 445T513 542T488 627T439 687T361 710Q302 710 255 679T174 594T117 477T86 350Z" />
<glyph unicode="1" horiz-adv-x="398" d="M177 655L348 691L230 0H239L361 705L179 666L177 655Z" />
<glyph unicode="2" horiz-adv-x="499" d="M7 0H448L450 10L34 11L378 328Q419 367 455 413T501 519Q508 564 494 608T443 681T346 711Q280 712 231 677T150 584T106 461H116Q128 524 158 579T235 668T346 701Q404 701 438 673T484 603T490 519Q484 479 466 447T422
387T369 334L7 0Z" />
<glyph unicode="3" horiz-adv-x="535" d="M279 363Q319 365 358 376T431 409T488 461T518 534Q525 579 509 619T457 684T366 710Q309 710 266 686T194 620T155 527H165Q176 575 202 614T270 677T365 700Q416 700 450 676T499 613T508 533Q500 481 464 446T378
393T280 371L279 363ZM252 -9Q311 -9 360 14T442 79T482 175Q489 222 474 257T428 316T358 353T280 368L279 360Q314 358 350 346T417 310T462 254T472 175Q465 125 434 86T355 24T252 1Q191 1 153 25T97 91T85 185H75Q70 132 88 88T147 17T252 -9Z" />
<glyph unicode="4" horiz-adv-x="537" d="M21 141L500 140L501 150H391H388L42 151L473 665L384 147V142L359 0H369L490 700H489L21 141Z" />
<glyph unicode="5" horiz-adv-x="541" d="M493 230Q501 287 484 336T429 415T333 446Q271 447 221 421T137 360L268 690H581L583 700H263L115 328Q159 375 213 406T332 436Q386 435 422 406T475 331T484 230Q475 163 441 111T354 30T239 1Q166 1 126 39T67 142L58
137Q77 71 119 31T238 -9Q287 -9 330 8T408 57T464 133T493 230Z" />
<glyph unicode="6" horiz-adv-x="520" d="M75 220Q84 275 117 322T203 398T320 427Q374 426 412 396T468 320T479 220Q471 161 439 111T356 31T243 1Q182 1 142 32T84 113T75 220ZM411 699L144 379Q118 348 96 306T65 220Q57 160 74 108T133 23T242 -9Q309 -9
361 22T447 105T489 220Q496 275 477 324T418 405T320 437Q265 438 218 415T134 356L135 355L424 699H411Z" />
<glyph unicode="7" horiz-adv-x="500" d="M123 690H564L103 0H114L582 700H125L123 690Z" />
<glyph unicode="8" horiz-adv-x="501" d="M148 541Q143 508 151 477T179 422T226 383T287 369Q321 369 353 382T414 420T460 475T484 541Q489 573 482 603T456 657T409 695T344 710Q296 710 254 687T183 625T148 541ZM157 541Q164 584 191 620T258 678T344 700Q390
700 421 677T467 618T474 541Q467 497 438 459T368 399T287 376Q248 377 217 400T168 461T157 541ZM67 185Q61 147 68 112T94 50T146 7T222 -9Q267 -9 304 6T371 48T418 110T443 185Q448 223 439 256T408 316T355 357T286 372Q247 372 211 358T144 317T94 258T67
185ZM77 185Q86 235 117 275T194 340T286 365Q333 365 369 340T422 274T433 185Q425 134 396 92T323 26T223 1Q168 1 133 27T83 95T77 185Z" />
<glyph unicode="9" horiz-adv-x="520" d="M519 480Q510 426 477 379T392 302T274 274Q221 275 183 304T126 381T115 480Q124 540 156 590T238 670T351 700Q413 700 453 669T510 587T519 480ZM183 0L450 321Q476 353 499 395T529 480Q538 541 521 593T461 677T352
710Q286 710 233 679T147 596T105 480Q98 426 117 377T176 296T274 263Q330 262 376 285T460 345H459L171 0H183Z" />
<glyph unicode=":" horiz-adv-x="291" d="M88 1Q88 -3 91 -6T99 -10Q104 -10 107 -7T110 1Q110 6 107 9T99 12Q95 12 92 9T88 1ZM148 349Q148 345 151 342T159 338Q164 338 167 341T170 349Q170 354 167 357T159 360Q155 360 152 357T148 349Z" />
<glyph unicode=";" horiz-adv-x="268" d="M177 349Q177 345 180 342T188 338Q193 338 196 341T199 349Q199 354 196 357T188 360Q184 360 181 357T177 349ZM160 93L13 -158L19 -160L170 88L160 93Z" />
<glyph unicode="&lt;" horiz-adv-x="621" d="M97 257L610 460L611 470L80 260L79 254L539 46L541 55L97 257Z" />
<glyph unicode="=" horiz-adv-x="597" d="M68 185H539L540 195H69L68 185ZM89 310H560L562 320H91L89 310Z" />
<glyph unicode="&gt;" horiz-adv-x="621" d="M559 258L45 56L44 46L575 255L576 261L116 470L114 460L559 258Z" />
<glyph unicode="?" horiz-adv-x="526" d="M501 520Q491 468 454 430T363 370T248 345H247L222 171H230L258 337Q319 341 373 364T464 427T511 520Q517 559 509 593T480 654T427 695T350 710Q279 710 229 676T137 594L145 588Q184 635 233 667T349 700Q405 700
441 675T493 610T501 520ZM181 1Q181 -4 184 -7T191 -10Q196 -10 199 -7T202 1Q202 6 200 9T192 12Q188 12 185 9T181 1Z" />
<glyph unicode="@" horiz-adv-x="747" d="M237 320Q244 375 272 420T342 492T429 517Q465 516 484 493T510 436T512 370Q505 323 479 278T415 204T330 175Q293 176 271 197T241 251T237 320ZM226 320Q221 279 231 244T266 186T331 164Q378 164 418 194T486 271T521
367Q526 405 520 441T492 502T430 528Q381 530 337 502T264 427T226 320ZM61 320Q51 253 62 194T105 89T190 19T317 -7Q392 -8 453 10T567 51L563 61Q513 38 452 21T318 4Q223 5 164 47T82 161T72 320Q85 397 121 465T214 586T342 668T495 697Q564 697 615 671T697
600T740 501T742 390Q736 347 717 306T670 231T608 179T540 164Q513 166 502 181T489 216T491 254Q493 262 495 272T499 289L579 520H567L488 291L490 290Q482 257 481 227T492 176T539 153Q575 150 610 168T676 221T726 298T753 390Q763 449 751 505T706 607T620
680T496 708Q412 709 339 679T208 594T112 469T61 320Z" />
<glyph unicode="A" horiz-adv-x="582" d="M145 272H478L479 282H146L145 272ZM383 688L472 276V273L529 0H541L387 715L-13 0H-1L151 273L153 277L383 688Z" />
<glyph unicode="B" horiz-adv-x="480" d="M133 386H243Q294 387 338 403T413 454T452 540Q458 578 449 607T417 657T361 689T286 700H180L60 0H177Q242 0 296 22T385 90T430 200Q436 244 423 279T383 339T322 378T253 392H134L133 384H243Q293 384 336 361T403
296T419 200Q410 138 377 96T292 33T178 11H72L188 689H285Q364 689 408 650T441 540Q433 490 402 458T327 411T234 394H134L133 386Z" />
<glyph unicode="C" horiz-adv-x="665" d="M93 350Q104 421 136 483T216 593T327 668T461 696Q524 697 575 677T665 614L668 629Q627 669 578 689T462 708Q388 708 324 680T209 602T126 489T81 350Q71 281 82 217T127 103T214 23T341 -7Q412 -8 468 13T573 72L576
87Q527 48 470 26T342 5Q271 5 220 34T137 112T94 222T93 350Z" />
<glyph unicode="D" horiz-adv-x="616" d="M180 700L60 0H71L191 700H180ZM216 0Q293 0 358 26T473 100T556 212T601 350Q612 421 600 484T554 595T465 672T335 700H185L183 689H334Q408 689 461 662T546 588T589 480T590 350Q575 254 525 177T396 56T217 11H67L65 0H216Z" />
<glyph unicode="E" horiz-adv-x="495" d="M62 0H391L392 10H64L62 0ZM180 690H508L510 700H182L180 690ZM128 384H437L438 394H130L128 384ZM180 700L60 0H71L191 700H180Z" />
<glyph unicode="F" horiz-adv-x="437" d="M181 689H469L471 700H183L181 689ZM127 373H406L407 383H129L127 373ZM180 700L60 0H71L191 700H180Z" />
<glyph unicode="G" horiz-adv-x="742" d="M437 330H708Q694 267 663 209T586 104T481 31T352 4Q280 4 227 32T140 110T95 221T92 350Q104 422 137 485T220 595T334 670T471 697Q554 697 615 657T706 550L717 556Q680 624 620 666T472 708Q397 708 332 680T214
603T127 489T81 350Q71 281 84 217T132 103T222 23T351 -7Q425 -7 487 22T596 100T675 211T720 340H439L437 330Z" />
<glyph unicode="H" horiz-adv-x="628" d="M128 377H574L576 387H129L128 377ZM623 700L502 0H513L634 700H623ZM180 700L60 0H71L191 700H180Z" />
<glyph unicode="I" horiz-adv-x="175" d="M176 700L55 0H65L186 700H176Z" />
<glyph unicode="J" horiz-adv-x="191" d="M-178 -158L-185 -165Q-171 -184 -143 -201T-79 -219Q-32 -220 -3 -200T43 -143T67 -60L197 700H186L58 -50Q48 -121 18 -165T-80 -208Q-111 -208 -135 -193T-178 -158Z" />
<glyph unicode="K" horiz-adv-x="441" d="M176 700L55 0H66L186 700H176ZM489 699L128 373L383 0H398L141 372L505 699H489Z" />
<glyph unicode="L" horiz-adv-x="417" d="M180 700L60 0H371L373 10H72L190 700H180Z" />
<glyph unicode="M" horiz-adv-x="805" d="M227 675L394 105L757 674L709 0H720L771 716L398 132L227 715L31 0H41L227 675Z" />
<glyph unicode="N" horiz-adv-x="675" d="M680 700L562 17L164 715L41 0H52L169 678L568 -15L691 700H680Z" />
<glyph unicode="O" horiz-adv-x="751" d="M92 350Q103 421 136 484T218 595T331 670T468 697Q540 697 593 669T678 591T723 480T725 350Q714 280 681 217T599 106T486 31T349 3Q277 3 224 32T139 110T94 221T92 350ZM81 350Q71 281 84 217T131 102T220 22T348
-8Q422 -8 487 20T604 97T690 212T736 350Q746 420 733 484T686 598T598 678T469 708Q395 708 330 680T213 603T127 489T81 350Z" />
<glyph unicode="P" horiz-adv-x="466" d="M180 700L60 0H71L191 700H180ZM185 690H300Q358 690 398 666T456 598T465 497Q456 439 424 396T342 328T233 304H119L117 294H232Q294 294 345 319T431 390T476 497Q485 557 466 602T404 674T301 700H187L185 690Z" />
<glyph unicode="Q" horiz-adv-x="748" d="M92 350Q103 421 136 484T218 595T331 670T468 697Q540 697 593 669T678 591T723 480T725 350Q714 280 681 217T599 106T486 31T349 3Q277 3 224 32T139 110T94 221T92 350ZM81 350Q71 281 84 217T131 102T220 22T348
-8Q422 -8 487 20T604 97T690 212T736 350Q746 420 733 484T686 598T598 678T469 708Q395 708 330 680T213 603T127 489T81 350ZM412 300L672 0H688L427 300H412Z" />
<glyph unicode="R" horiz-adv-x="454" d="M220 317L380 0H393L232 317H220ZM180 700L60 0H71L191 700H180ZM180 689H290Q350 688 396 668T464 607T477 507Q467 447 432 407T343 346T227 324H118L116 314H226Q291 315 346 337T440 401T488 507Q498 569 474 612T402
677T291 700H182L180 689Z" />
<glyph unicode="S" horiz-adv-x="474" d="M62 193L52 189Q56 140 72 96T124 23T221 -7Q278 -7 323 16T396 81T433 173Q440 225 423 261T373 324T300 368Q268 382 240 399T190 438T159 488T155 552Q162 595 188 627T252 678T335 696Q383 696 412 676T457 625T478
561L488 564Q484 599 467 632T417 686T335 708Q288 708 248 688T180 633T144 552Q138 514 148 485T181 432T232 392T294 359Q332 342 364 317T412 257T422 173Q415 124 388 86T318 26T221 4Q162 5 128 33T80 104T62 193Z" />
<glyph unicode="T" horiz-adv-x="418" d="M110 689H294L176 0H187L305 689H490L492 700H112L110 689Z" />
<glyph unicode="U" horiz-adv-x="559" d="M176 700L93 220Q85 160 97 108T147 23T252 -9Q319 -9 368 21T447 104T488 220L570 700H559L476 220Q466 159 437 110T361 31T252 2Q191 2 156 32T109 112T104 220L186 700H176Z" />
<glyph unicode="V" horiz-adv-x="582" d="M276 15L118 700H106L271 -15L659 700H646L276 15Z" />
<glyph unicode="W" horiz-adv-x="922" d="M661 27L555 716L234 27L121 700H110L228 -15L549 677L655 -15L994 700H983L661 27Z" />
<glyph unicode="X" horiz-adv-x="485" d="M529 699L286 378L148 700H134L279 368L2 0H16L283 356L436 0H449L291 367L543 699H529Z" />
<glyph unicode="Y" horiz-adv-x="492" d="M558 699L261 282L120 700H107L255 267L208 0H219L265 267L571 699H558Z" />
<glyph unicode="Z" horiz-adv-x="519" d="M129 689H574L-8 0H468L470 12H16L598 700H131L129 689Z" />
<glyph unicode="[" horiz-adv-x="252" d="M210 769H335L336 780H200L46 -220H182L184 -209H59L210 769Z" />
<glyph unicode="\" horiz-adv-x="422" d="M107 700L368 0H381L120 700H107Z" />
<glyph unicode="]" horiz-adv-x="252" d="M95 -209H-30L-31 -220H104L259 780H123L121 769H246L95 -209Z" />
<glyph unicode="^" horiz-adv-x="495" d="M339 692L471 460H484L341 709V709L114 461H129L339 692Z" />
<glyph unicode="_" horiz-adv-x="485" d="M-46 -109H440L442 -98H-44L-46 -109Z" />
<glyph unicode="`" horiz-adv-x="343" d="M186 692L331 536L336 540L195 700L186 692Z" />
<glyph unicode="a" horiz-adv-x="525" d="M490 460L410 0H420L500 460H490ZM56 230Q48 168 63 113T119 25T222 -9Q269 -9 308 12T378 68T428 145T455 230Q461 270 456 312T432 389T382 447T303 470Q240 471 188 438T101 351T56 230ZM66 230Q76 293 109 345T194
429T305 460Q348 459 378 438T426 383T450 308T450 230Q443 189 424 149T374 75T307 21T226 1Q165 1 127 33T73 118T66 230Z" />
<glyph unicode="b" horiz-adv-x="525" d="M194 780H184L50 0H60L194 780ZM494 230Q503 293 487 347T431 436T327 470Q280 470 241 449T171 393T122 316T95 230Q89 190 94 149T118 72T168 14T247 -9Q310 -10 362 22T450 110T494 230ZM484 230Q475 167 441 115T356
31T244 1Q202 2 172 23T124 78T100 152T100 230Q107 272 126 312T175 386T243 440T324 460Q385 461 423 428T477 343T484 230Z" />
<glyph unicode="c" horiz-adv-x="474" d="M67 230Q76 293 112 345T202 429T319 460Q366 460 403 442T460 400L462 412Q441 435 404 452T320 470Q253 470 197 438T104 351T57 230Q49 167 69 113T135 25T247 -9Q297 -9 338 8T406 48L408 60Q382 39 340 20T248 1Q185
1 142 33T79 118T67 230Z" />
<glyph unicode="d" horiz-adv-x="525" d="M544 780L410 0H420L554 780H544ZM56 230Q48 168 63 113T119 25T222 -9Q269 -9 308 12T378 68T428 145T455 230Q461 270 456 312T432 389T382 447T303 470Q240 471 188 438T101 351T56 230ZM66 230Q76 293 109 345T194
429T305 460Q348 459 378 438T426 383T450 308T450 230Q443 189 424 149T374 75T307 21T226 1Q165 1 127 33T73 118T66 230Z" />
<glyph unicode="e" horiz-adv-x="502" d="M225 -10Q288 -10 340 19T435 107L427 113Q387 57 337 29T225 0Q178 0 142 25T85 94T65 197Q65 246 84 292T137 377T214 437T304 460Q350 460 385 436T440 370T460 280Q460 264 456 251T448 229L455 238H68V228H460Q465
240 467 253T470 279Q470 331 449 374T390 443T304 470Q255 470 211 447T131 385T76 297T55 197Q55 136 76 89T136 16T225 -10Z" />
<glyph unicode="f" horiz-adv-x="270" d="M100 460L98 450H288L289 460H100ZM372 733L379 740Q368 757 351 772T304 788Q264 789 238 768T197 715T176 650L65 0H75L186 650Q192 678 205 708T242 758T304 778Q329 777 345 763T372 733Z" />
<glyph unicode="g" horiz-adv-x="525" d="M27 -30Q21 -83 35 -128T85 -201T179 -229Q242 -229 293 -198T379 -113T423 10L500 460H490L412 10Q403 -56 370 -108T288 -189T180 -219Q125 -218 92 -193T45 -124T37 -30H27ZM56 230Q48 168 63 113T119 25T222 -9Q269
-9 308 12T378 68T428 145T455 230Q461 270 456 312T432 389T382 447T303 470Q240 471 188 438T101 351T56 230ZM66 230Q76 293 109 345T194 429T305 460Q347 459 377 438T426 383T450 310T451 235Q444 193 425 152T375 76T308 22T226 1Q165 1 127 33T73 118T66
230Z" />
<glyph unicode="h" horiz-adv-x="461" d="M199 780H189L55 0H65L199 780ZM397 320L341 0H351L407 320Q412 360 405 393T373 448T302 470Q251 470 211 443T145 373T107 281H112Q123 325 149 366T214 434T302 460Q345 460 367 440T395 389T397 320Z" />
<glyph unicode="i" horiz-adv-x="184" d="M174 695Q174 691 177 688T184 685Q189 685 191 688T194 695Q194 700 192 702T184 705Q180 705 177 703T174 695ZM140 460L60 0H70L150 460H140Z" />
<glyph unicode="j" horiz-adv-x="175" d="M164 695Q164 691 167 688T174 685Q179 685 181 688T184 695Q184 700 182 702T174 705Q170 705 167 703T164 695ZM-149 -165L-157 -172Q-145 -188 -128 -203T-82 -219Q-42 -219 -16 -199T26 -146T47 -82L140 460H130L37
-82Q32 -109 19 -138T-19 -188T-82 -209Q-106 -209 -122 -194T-149 -165Z" />
<glyph unicode="k" horiz-adv-x="361" d="M184 780L50 0H60L194 780H184ZM370 459L105 271L312 0H324L117 270L386 459H370Z" />
<glyph unicode="l" horiz-adv-x="175" d="M189 780L55 0H65L199 780H189Z" />
<glyph unicode="m" horiz-adv-x="670" d="M615 320Q620 357 615 391T590 447T530 470Q477 471 436 435T370 339Q373 371 367 401T340 450T283 470Q247 471 215 453T160 403T124 336L145 460H135L55 0H65L117 291Q124 334 148 373T208 436T282 460Q319 459 336
438T358 386T358 320L302 0H312L364 290Q371 333 395 372T455 436T530 460Q567 459 584 438T605 386T605 320L550 0H560L615 320Z" />
<glyph unicode="n" horiz-adv-x="461" d="M397 320L341 0H351L407 320Q412 360 405 393T373 448T302 470Q239 470 192 432T125 336L145 460H135L55 0H65L117 290Q125 335 151 374T216 437T302 460Q345 460 367 440T395 389T397 320Z" />
<glyph unicode="o" horiz-adv-x="540" d="M62 230Q54 167 74 113T140 25T252 -9Q319 -9 375 23T468 110T515 230Q524 293 503 347T437 436T325 470Q258 470 202 438T108 351T62 230ZM72 230Q81 293 117 345T207 429T324 460Q387 460 430 428T493 343T505 230Q496
167 460 115T370 32T252 1Q190 1 147 33T83 118T72 230Z" />
<glyph unicode="p" horiz-adv-x="525" d="M22 -219L140 460H130L12 -219H22ZM494 230Q503 293 487 347T431 436T327 470Q280 470 241 449T171 393T122 316T95 230Q89 190 94 149T118 72T168 14T247 -9Q310 -10 362 22T450 110T494 230ZM484 230Q475 167 441 115T356
31T244 1Q202 2 172 23T124 78T100 152T100 230Q107 272 126 312T175 386T243 440T324 460Q385 461 423 428T477 343T484 230Z" />
<glyph unicode="q" horiz-adv-x="525" d="M373 -219H382L500 460H490L373 -219ZM56 230Q48 168 63 113T119 25T222 -9Q269 -9 308 12T378 68T428 145T455 230Q461 270 456 312T432 389T382 447T303 470Q240 471 188 438T101 351T56 230ZM66 230Q76 293 109 345T194
429T305 460Q348 459 378 438T426 383T450 308T450 230Q443 189 424 149T374 75T307 21T226 1Q165 1 127 33T73 118T66 230Z" />
<glyph unicode="r" horiz-adv-x="281" d="M145 460H135L55 0H65L145 460ZM310 440L317 448Q304 456 290 462T259 470Q214 472 183 444T134 371T107 281H112Q120 322 138 364T186 433T258 460Q272 459 285 454T310 440Z" />
<glyph unicode="s" horiz-adv-x="391" d="M56 132L46 130Q47 96 59 64T98 12T174 -9Q212 -9 244 7T298 51T324 117Q329 152 314 175T273 214T217 240Q186 251 160 264T121 299T113 359Q121 406 157 432T240 458Q293 457 317 430T351 365L361 368Q351 409 324 438T241
468Q208 468 179 455T129 418T103 359Q98 320 111 296T150 258T210 231Q240 221 265 207T305 172T314 117Q307 65 267 33T175 0Q130 1 105 20T68 69T56 132Z" />
<glyph unicode="t" horiz-adv-x="184" d="M68 460L66 450H222L224 460H68ZM167 620L60 0H70L177 620H167Z" />
<glyph unicode="u" horiz-adv-x="461" d="M91 150L145 460H135L81 150Q76 108 82 72T112 14T183 -9Q247 -10 292 28T361 121L341 0H351L431 460H421L370 172Q363 130 337 91T271 26T184 1Q140 2 118 23T91 78T91 150Z" />
<glyph unicode="v" horiz-adv-x="408" d="M64 460L184 -15L453 460H441L188 11L75 460H64Z" />
<glyph unicode="w" horiz-adv-x="602" d="M67 460L127 -15L345 441L414 -15L640 460H630L420 19L351 476L133 19L76 460H67Z" />
<glyph unicode="x" horiz-adv-x="369" d="M389 459L205 245L87 460H73L198 238L-8 0H7L203 229L329 0H342L211 237L403 459H389Z" />
<glyph unicode="y" horiz-adv-x="412" d="M455 460H444L180 21L191 20L72 460H61L181 21L36 -219H47L455 460Z" />
<glyph unicode="z" horiz-adv-x="417" d="M417 450L-8 0H371L373 11H15L440 460H90L89 450H417Z" />
<glyph unicode="{" horiz-adv-x="273" d="M225 640Q233 699 254 734T326 770H346L347 780H327Q289 780 267 763T233 714T215 640L183 430Q176 381 156 347T106 295L104 285Q129 266 137 232T140 150L108 -60Q104 -99 105 -130T123 -181T177 -200H196L198 -190H178Q144
-190 130 -173T115 -127T117 -60L150 150Q153 177 152 200T145 241T130 273T106 292L105 289Q122 294 136 306T161 336T181 378T193 430L225 640Z" />
<glyph unicode="|" horiz-adv-x="204" d="M201 785L46 -215H56L211 785H201Z" />
<glyph unicode="}" horiz-adv-x="273" d="M103 -60Q96 -118 75 -154T2 -190H-17L-19 -200H1Q39 -200 61 -183T96 -133T113 -60L145 150Q153 200 173 234T223 285L224 295Q200 315 192 349T188 430L220 640Q225 679 223 711T206 761T151 780H132L131 770H150Q185
770 198 753T213 707T211 640L178 430Q175 404 176 381T183 340T198 308T223 288V292Q207 287 193 275T167 244T147 202T135 150L103 -60Z" />
<glyph unicode="~" horiz-adv-x="558" d="M96 179Q95 184 95 190T95 201Q102 247 132 282T211 317Q236 317 253 305T283 276T306 243Q323 218 344 196T402 173Q425 172 445 182T479 207Q493 223 501 245T514 290Q515 297 515 304T514 318L505 321Q506 314 506
306T505 290Q499 248 473 215T403 183Q370 183 350 205T314 250Q297 276 275 301T212 327Q187 327 165 317T126 290Q110 274 101 252T87 206Q86 199 86 193T86 182L96 179Z" />
<glyph unicode="&#xa0;" horiz-adv-x="301" />
<glyph unicode="&#xa1;" horiz-adv-x="291" d="M102 -244L184 255H178L88 -244H102ZM225 454Q226 459 224 462T216 465Q212 465 208 462T204 454Q203 450 206 447T213 443Q217 443 221 446T225 454Z" />
<glyph unicode="&#xa2;" horiz-adv-x="563" d="M280 -4L255 -111H269L284 -4H280ZM105 230Q116 293 152 345T243 428T362 460Q409 460 446 442T502 400L504 412Q483 435 446 452T362 470Q295 470 239 438T145 351T96 230Q87 168 106 113T171 25T282 -9Q332 -9
373 8T442 48L444 60Q417 39 375 20T282 1Q219 1 177 33T115 118T105 230ZM374 578L358 464H362L388 578H374Z" />
<glyph unicode="&#xa3;" horiz-adv-x="563" d="M109 305L108 295H409L411 305H109ZM524 498H534Q537 529 533 565T515 635T472 689T396 710Q357 710 323 696T263 658T219 603T196 538Q190 497 202 463T232 397T262 334T269 264Q260 214 226 171T149 86T64 0H456L457
10L76 11L78 1Q98 25 128 53T191 115T247 185T279 264Q285 302 273 334T242 398T212 463T206 538Q214 580 240 617T306 677T395 700Q439 700 465 680T506 629T523 563T524 498Z" />
<glyph unicode="&#xa4;" horiz-adv-x="543" d="M117 523L169 460L180 469L129 533L117 523ZM49 68L122 130L115 140L41 78L49 68ZM487 461L560 522L552 533L479 470L487 461ZM421 131L473 67L483 77L432 140L421 131ZM74 300Q65 239 84 184T148 95T256 61Q321
61 376 93T470 180T518 300Q527 362 508 416T444 505T336 540Q272 540 216 507T122 420T74 300ZM84 300Q94 362 130 414T220 498T336 530Q397 530 438 497T498 411T508 300Q498 239 462 187T372 103T256 71Q195 71 154 104T94 189T84 300Z" />
<glyph unicode="&#xa5;" horiz-adv-x="548" d="M48 270H511L513 280H50L48 270ZM27 145H490L492 155H29L27 145ZM572 699L277 282L134 700H122L270 268L223 0H234L279 265L585 699H572Z" />
<glyph unicode="&#xa6;" horiz-adv-x="204" d="M190 695L147 456H157L200 695H190ZM123 245H113L70 6H80L123 245Z" />
<glyph unicode="&#xa7;" horiz-adv-x="386" d="M425 616L432 620Q419 661 380 685T291 710Q255 710 221 698T162 661T132 599Q128 571 139 552T172 519T218 495T264 475Q289 465 318 450T366 413T382 361Q377 324 352 301T290 265T213 241V241Q246 242 276 249T331
270T371 306T392 360Q397 394 379 416T331 455T272 483Q254 491 230 501T185 524T151 555T142 599Q147 633 171 655T227 689T290 700Q336 700 373 678T425 616ZM32 127L23 123Q27 85 49 55T105 8T181 -9Q219 -9 255 2T316 37T348 100Q354 141 335 167T286 210T224
241Q206 249 184 259T141 284T110 316T101 359Q107 391 131 415T193 455T272 480H271Q236 478 206 469T151 445T112 409T91 360Q86 326 106 303T157 263T216 233Q245 220 275 204T325 163T338 100Q332 64 307 42T247 10T181 0Q120 1 79 38T32 127Z" />
<glyph unicode="&#xa8;" horiz-adv-x="410" d="M380 689Q380 685 382 682T389 678Q394 678 397 681T402 689Q402 694 400 697T392 700Q388 700 385 697T380 689ZM186 689Q186 685 188 682T195 678Q200 678 203 681T208 689Q208 694 206 697T198 700Q194 700 191
697T186 689Z" />
<glyph unicode="&#xa9;" horiz-adv-x="776" d="M229 350Q237 407 267 454T343 529T447 558Q485 558 515 546T570 509L572 518Q547 541 518 553T447 565Q389 565 341 536T261 458T222 350Q215 295 231 246T285 167T382 136Q424 135 457 148T520 183L522 192Q492
170 458 156T382 143Q326 144 290 173T238 250T229 350ZM86 350Q97 422 132 485T220 597T340 673T480 700Q552 700 609 672T704 594T759 482T765 350Q754 278 719 215T631 103T511 27T371 0Q299 0 242 28T147 106T92 218T86 350ZM76 350Q66 278 82 214T137 99T236
20T370 -10Q447 -10 515 18T638 95T728 210T775 350Q785 422 769 487T713 602T614 681T480 710Q403 710 335 683T212 606T123 491T76 350Z" />
<glyph unicode="&#xaa;" horiz-adv-x="231" d="M92 528Q97 560 127 578T188 596Q209 595 224 588T250 572L251 578Q240 586 226 592T188 600Q155 600 124 582T88 529Q84 495 102 476T150 456Q188 455 213 481T247 539L243 540Q234 511 210 486T150 461Q123 462
106 479T92 528ZM133 663Q148 675 168 685T211 695Q241 694 251 674T258 625L228 461H233L263 625Q266 654 255 676T211 700Q186 701 165 690T129 667L133 663Z" />
<glyph unicode="&#xab;" horiz-adv-x="471" d="M220 255L459 482L453 489L210 256L373 20L381 27L220 255ZM65 255L304 482L298 489L55 256L218 20L225 27L65 255Z" />
<glyph unicode="&#xac;" horiz-adv-x="602" d="M98 365H565L531 176H541L576 375H100L98 365Z" />
<glyph unicode="&#xad;" horiz-adv-x="204" d="M23 265H217L219 275H25L23 265Z" />
<glyph unicode="&#xae;" horiz-adv-x="776" d="M389 340L489 150H498L397 340H389ZM363 570L297 150H304L370 570H363ZM362 563H428Q481 562 515 535T542 454Q535 400 493 373T394 344H328L327 338L393 339Q451 341 496 369T549 454Q557 510 521 539T429 570H363L362
563ZM86 350Q97 422 132 485T220 597T340 673T480 700Q552 700 609 672T704 594T759 482T765 350Q754 278 719 215T631 103T511 27T371 0Q299 0 242 28T147 106T92 218T86 350ZM76 350Q66 278 82 214T137 99T236 20T370 -10Q447 -10 515 18T638 95T728 210T775
350Q785 422 769 487T713 602T614 681T480 710Q403 710 335 683T212 606T123 491T76 350Z" />
<glyph unicode="&#xaf;" horiz-adv-x="495" d="M163 665H503L504 675H165L163 665Z" />
<glyph unicode="&#xb0;" horiz-adv-x="270" d="M94 601Q87 553 113 517T190 481Q224 481 253 497T301 540T326 600Q331 632 321 659T288 703T231 720Q197 720 168 704T119 661T94 601ZM104 600Q109 630 127 655T173 695T230 710Q275 709 299 677T316 600Q312 570
294 545T248 506T191 491Q146 492 122 524T104 600Z" />
<glyph unicode="&#xb1;" horiz-adv-x="592" d="M46 0H512L514 10H48L46 0ZM105 380H571L572 390H106L105 380ZM370 620L297 150H307L380 620H370Z" />
<glyph unicode="&#xb2;" horiz-adv-x="322" d="M50 283L314 282L315 288L66 289L276 479Q301 502 323 530T351 594Q356 621 348 647T318 691T261 709Q221 710 191 689T142 633T114 559H120Q128 596 146 629T194 683T261 703Q296 703 316 686T343 644T345 594Q339
558 317 532T270 483L50 283Z" />
<glyph unicode="&#xb3;" horiz-adv-x="299" d="M193 498Q225 500 256 511T310 545T339 600Q344 627 335 651T304 690T250 706Q198 707 165 675T121 597H127Q138 639 169 670T250 700Q295 699 317 669T333 600Q327 569 305 549T253 517T194 503L193 498ZM174 275Q209
275 239 289T289 328T314 385Q318 413 309 434T282 469T241 491T194 501V496Q222 493 250 481T296 445T308 385Q301 340 263 310T174 281Q118 281 95 313T75 391H69Q67 359 77 333T111 291T174 275Z" />
<glyph unicode="&#xb4;" horiz-adv-x="343" d="M336 691L329 699L138 541L143 536L336 691Z" />
<glyph unicode="&#xb5;" horiz-adv-x="461" d="M145 460H135L0 -319H10L79 78Q85 40 109 16T183 -9Q247 -10 293 28T361 122L341 0H351L431 460H421L369 172Q362 128 336 89T271 25T184 1Q142 1 120 20T92 71T88 141L145 460Z" />
<glyph unicode="&#xb6;" horiz-adv-x="435" d="M298 270L214 -219H224L381 690H458L302 -219H312L470 700H372Q308 700 253 674T162 600T114 485Q104 421 125 374T192 301T298 270Z" />
<glyph unicode="&#xb7;" horiz-adv-x="235" d="M117 221Q117 218 118 216T121 212T127 210Q130 210 132 211T137 216T139 221Q140 224 139 226T135 230T130 232Q127 232 124 231T120 227T117 221Z" />
<glyph unicode="&#xb8;" horiz-adv-x="340" d="M144 0L75 -87Q94 -77 115 -69T159 -62Q175 -63 187 -71T205 -93T209 -126Q206 -152 189 -170T148 -199T100 -209Q77 -209 60 -201T26 -176L18 -182Q37 -200 55 -209T99 -219Q126 -219 152 -208T197 -176T219 -126Q223
-94 205 -74T160 -52Q138 -51 122 -58T88 -75L156 0H144Z" />
<glyph unicode="&#xb9;" horiz-adv-x="456" d="M226 667L328 689L257 275H263L337 697L227 674L226 667Z" />
<glyph unicode="&#xba;" horiz-adv-x="270" d="M91 581Q84 533 110 497T187 461Q221 461 250 477T298 520T323 580Q328 612 318 639T284 683T227 700Q194 700 165 684T116 641T91 581ZM101 580Q106 610 124 635T169 675T227 690Q272 689 296 657T313 580Q309 550
291 525T245 486T187 471Q142 472 118 504T101 580Z" />
<glyph unicode="&#xbb;" horiz-adv-x="471" d="M284 255L45 28L51 21L294 254L131 490L123 483L284 255ZM439 255L200 28L206 21L449 254L286 490L279 483L439 255Z" />
<glyph unicode="&#xbc;" horiz-adv-x="732" d="M744 699L68 0H80L756 699H744ZM107 667L210 689L138 275H144L218 697L108 674L107 667ZM377 84H664L665 90H599H597H383L377 84ZM383 85L648 399L594 88V85L579 0H585L657 420V419L376 85H383Z" />
<glyph unicode="&#xbd;" horiz-adv-x="795" d="M744 699L68 0H80L756 699H744ZM107 667L210 689L138 275H144L218 697L108 674L107 667ZM455 3L719 2L720 8L471 9L680 199Q705 222 728 249T757 313Q762 340 754 366T723 410T665 429Q625 430 595 409T546 353T518
279H524Q532 316 551 349T598 403T665 423Q700 422 720 405T747 363T750 313Q744 277 722 251T675 202L455 3Z" />
<glyph unicode="&#xbe;" horiz-adv-x="796" d="M809 699L133 0H145L821 699H809ZM198 498Q230 500 261 511T315 545T344 600Q349 627 340 651T309 690T255 706Q203 707 170 675T125 597H131Q142 639 173 670T254 700Q299 699 322 669T338 600Q332 569 310 549T258
517T199 503L198 498ZM178 275Q213 275 243 289T294 328T319 385Q323 413 314 434T287 469T246 491T199 501L198 496Q226 493 254 481T301 445T313 385Q306 340 267 310T178 281Q123 281 100 313T80 391H74Q72 359 82 333T116 291T178 275ZM442 84H729L730 90H664H662H448L442
84ZM448 85L713 399L660 88L659 85L644 0H650L722 420V419L441 85H448Z" />
<glyph unicode="&#xbf;" horiz-adv-x="526" d="M91 180Q98 220 128 258T212 323T345 356V355L369 530H362L333 363Q273 359 219 336T128 274T81 180Q75 141 82 107T111 47T165 6T242 -9Q313 -10 364 24T455 106L447 112Q407 66 359 33T242 1Q188 1 151 26T98 91T91
180ZM411 699Q411 704 409 707T402 710Q399 710 396 709T392 705T389 699Q389 695 391 692T398 688Q401 688 404 689T409 694T411 699Z" />
<glyph unicode="&#xc0;" horiz-adv-x="582" d="M143 272H478L479 282H144L143 272ZM383 688L472 276V273L529 0H541L387 715L-13 0H-1L151 273L153 277L383 688ZM291 932L434 776L439 780L300 940L291 932Z" />
<glyph unicode="&#xc1;" horiz-adv-x="582" d="M143 272H478L479 282H144L143 272ZM383 688L472 276V273L529 0H541L387 715L-13 0H-1L151 273L153 277L383 688ZM556 931L549 939L356 781L359 776L556 931Z" />
<glyph unicode="&#xc2;" horiz-adv-x="582" d="M143 272H478L479 282H144L143 272ZM383 688L472 276V273L529 0H541L387 715L-13 0H-1L151 273L153 277L383 688ZM420 910L546 775L553 782L421 922L242 783L248 776L420 910Z" />
<glyph unicode="&#xc3;" horiz-adv-x="582" d="M143 272H478L479 282H144L143 272ZM383 688L472 276V273L529 0H541L387 715L-13 0H-1L151 273L153 277L383 688ZM277 797L287 796Q294 814 307 829T349 846Q370 846 385 835T416 812T459 800Q475 800 488 806T512
825T533 852L523 855Q510 836 496 822T460 808Q437 808 422 819T390 842T347 854Q327 854 313 846T291 824T277 797Z" />
<glyph unicode="&#xc4;" horiz-adv-x="582" d="M143 272H478L479 282H144L143 272ZM383 688L472 276V273L529 0H541L387 715L-13 0H-1L151 273L153 277L383 688ZM488 806Q488 802 490 799T497 795Q502 795 505 798T510 806Q510 811 508 814T501 817Q497 817 493
814T488 806ZM294 806Q293 802 296 799T303 795Q308 795 311 798T316 806Q316 811 314 814T306 817Q302 817 298 814T294 806Z" />
<glyph unicode="&#xc5;" horiz-adv-x="582" d="M143 272H478L479 282H144L143 272ZM383 688L472 276V273L529 0H541L387 715L-13 0H-1L151 273L153 277L383 688ZM303 809Q299 782 309 760T339 723T385 709Q412 709 437 722T480 757T502 808Q506 835 496 857T466
894T419 908Q393 908 368 895T325 859T303 809ZM313 808Q317 833 332 853T371 886T418 898Q454 897 475 871T492 808Q486 771 455 745T386 719Q350 720 329 746T313 808Z" />
<glyph unicode="&#xc6;" horiz-adv-x="870" d="M222 280H503L505 290H223L222 280ZM563 700L-23 0H-10L577 699L563 700ZM455 0H765L767 10H457L455 0ZM577 690H883L885 700H563L577 690ZM521 384H811L813 394H523L521 384ZM569 700L448 0H459L580 700H569Z" />
<glyph unicode="&#xc7;" horiz-adv-x="665" d="M93 350Q104 421 136 483T216 593T327 668T461 696Q524 697 575 677T665 614L668 629Q627 669 578 689T462 708Q388 708 324 680T209 602T126 489T81 350Q71 281 82 217T127 103T214 23T341 -7Q412 -8 468 13T573
72L576 87Q527 48 470 26T342 5Q271 5 220 34T137 112T94 222T93 350ZM336 -1L267 -88Q286 -78 307 -70T351 -63Q367 -64 379 -72T397 -94T401 -127Q398 -153 381 -171T340 -200T292 -210Q269 -210 252 -202T218 -177L210 -183Q229 -201 247 -210T291 -220Q318
-220 344 -209T389 -177T411 -127Q415 -95 397 -75T352 -53Q330 -52 314 -59T280 -76L348 -1H336Z" />
<glyph unicode="&#xc8;" horiz-adv-x="495" d="M62 0H391L392 10H64L62 0ZM180 690H508L510 700H182L180 690ZM128 384H437L438 394H130L128 384ZM180 700L60 0H71L191 700H180ZM232 925L375 769L379 773L240 933L232 925Z" />
<glyph unicode="&#xc9;" horiz-adv-x="495" d="M62 0H391L392 10H64L62 0ZM180 690H508L510 700H182L180 690ZM128 384H437L438 394H130L128 384ZM180 700L60 0H71L191 700H180ZM535 924L529 932L335 774L339 769L535 924Z" />
<glyph unicode="&#xca;" horiz-adv-x="495" d="M62 0H391L392 10H64L62 0ZM180 690H508L510 700H182L180 690ZM128 384H437L438 394H130L128 384ZM180 700L60 0H71L191 700H180ZM380 903L506 768L513 775L381 915L202 776L208 769L380 903Z" />
<glyph unicode="&#xcb;" horiz-adv-x="495" d="M62 0H391L392 10H64L62 0ZM180 690H508L510 700H182L180 690ZM128 384H437L438 394H130L128 384ZM180 700L60 0H71L191 700H180ZM448 799Q448 795 450 792T457 788Q462 788 465 791T470 799Q470 804 468 807T461
810Q457 810 453 807T448 799ZM254 799Q253 795 256 792T263 788Q268 788 271 791T276 799Q276 804 274 807T266 810Q262 810 258 807T254 799Z" />
<glyph unicode="&#xcc;" horiz-adv-x="175" d="M176 700L55 0H65L186 700H176ZM67 925L210 769L214 773L75 933L67 925Z" />
<glyph unicode="&#xcd;" horiz-adv-x="175" d="M176 700L55 0H65L186 700H176ZM370 924L364 932L170 774L174 769L370 924Z" />
<glyph unicode="&#xce;" horiz-adv-x="175" d="M176 700L55 0H65L186 700H176ZM215 903L341 768L348 775L216 915L37 776L43 769L215 903Z" />
<glyph unicode="&#xcf;" horiz-adv-x="175" d="M176 700L55 0H65L186 700H176ZM254 799Q253 795 256 792T263 788Q268 788 271 791T276 799Q276 804 274 807T266 810Q262 810 258 807T254 799ZM118 799Q118 795 120 792T127 788Q132 788 135 791T140 799Q140 804
138 807T131 810Q127 810 123 807T118 799Z" />
<glyph unicode="&#xd0;" horiz-adv-x="660" d="M37 345H328L330 355H38L37 345ZM180 700L60 0H71L191 700H180ZM216 0Q318 2 399 48T532 172T601 350Q615 445 589 523T500 650T335 700H185L183 689H334Q432 687 493 641T579 518T590 350Q575 254 524 178T395 58T217
11H67L65 0H216Z" />
<glyph unicode="&#xd1;" horiz-adv-x="645" d="M660 700L542 17L144 715L21 0H32L149 678L548 -15L671 700H660ZM300 757L309 756Q315 774 329 790T371 806Q392 806 408 795T441 772T481 760Q497 760 510 766T534 785T554 812L545 815Q532 796 518 782T482 768Q459
768 443 779T410 802T370 814Q350 814 336 806T314 784T300 757Z" />
<glyph unicode="&#xd2;" horiz-adv-x="751" d="M92 350Q103 421 136 484T218 595T331 670T468 697Q540 697 593 669T678 591T723 480T725 350Q714 280 681 217T599 106T486 31T349 3Q277 3 224 32T139 110T94 221T92 350ZM81 350Q71 281 84 217T131 102T220 22T348
-8Q422 -8 487 20T604 97T690 212T736 350Q746 420 733 484T686 598T598 678T469 708Q395 708 330 680T213 603T127 489T81 350ZM375 925L516 769L523 773L384 933L375 925Z" />
<glyph unicode="&#xd3;" horiz-adv-x="751" d="M92 350Q103 421 136 484T218 595T331 670T468 697Q540 697 593 669T678 591T723 480T725 350Q714 280 681 217T599 106T486 31T349 3Q277 3 224 32T139 110T94 221T92 350ZM81 350Q71 281 84 217T131 102T220 22T348
-8Q422 -8 487 20T604 97T690 212T736 350Q746 420 733 484T686 598T598 678T469 708Q395 708 330 680T213 603T127 489T81 350ZM638 924L631 932L438 774L444 769L638 924Z" />
<glyph unicode="&#xd4;" horiz-adv-x="751" d="M92 350Q103 421 136 484T218 595T331 670T468 697Q540 697 593 669T678 591T723 480T725 350Q714 280 681 217T599 106T486 31T349 3Q277 3 224 32T139 110T94 221T92 350ZM81 350Q71 281 84 217T131 102T220 22T348
-8Q422 -8 487 20T604 97T690 212T736 350Q746 420 733 484T686 598T598 678T469 708Q395 708 330 680T213 603T127 489T81 350ZM503 903L629 768L637 775L505 915L325 776L331 769L503 903Z" />
<glyph unicode="&#xd5;" horiz-adv-x="751" d="M92 350Q103 421 136 484T218 595T331 670T468 697Q540 697 593 669T678 591T723 480T725 350Q714 280 681 217T599 106T486 31T349 3Q277 3 224 32T139 110T94 221T92 350ZM81 350Q71 281 84 217T131 102T220 22T348
-8Q422 -8 487 20T604 97T690 212T736 350Q746 420 733 484T686 598T598 678T469 708Q395 708 330 680T213 603T127 489T81 350ZM361 790L369 789Q376 807 390 823T433 839Q454 839 469 828T502 805T542 793Q558 793 571 799T595 818T615 845L607 848Q594 829 580
815T544 801Q521 801 505 812T472 835T432 847Q411 847 397 839T375 817T361 790Z" />
<glyph unicode="&#xd6;" horiz-adv-x="751" d="M92 350Q103 421 136 484T218 595T331 670T468 697Q540 697 593 669T678 591T723 480T725 350Q714 280 681 217T599 106T486 31T349 3Q277 3 224 32T139 110T94 221T92 350ZM81 350Q71 281 84 217T131 102T220 22T348
-8Q422 -8 487 20T604 97T690 212T736 350Q746 420 733 484T686 598T598 678T469 708Q395 708 330 680T213 603T127 489T81 350ZM583 809Q582 805 585 802T592 798Q596 798 600 801T604 809Q605 814 603 817T595 820Q591 820 587 817T583 809ZM369 809Q369 805
371 802T378 798Q383 798 386 801T391 809Q391 814 389 817T382 820Q378 820 374 817T369 809Z" />
<glyph unicode="&#xd7;" horiz-adv-x="561" d="M66 47L296 248L457 46L465 53L302 254L535 455L529 462L297 261L136 463L128 456L292 254L60 54L66 47Z" />
<glyph unicode="&#xd8;" horiz-adv-x="767" d="M92 350Q103 421 136 484T218 595T331 670T468 697Q540 697 593 669T678 591T723 480T725 350Q714 280 681 217T599 106T486 31T349 3Q277 3 224 32T139 110T94 221T92 350ZM81 350Q71 281 84 217T131 102T220 22T348
-8Q422 -8 487 20T604 97T690 212T736 350Q746 420 733 484T686 598T598 678T469 708Q395 708 330 680T213 603T127 489T81 350ZM789 733L30 -26L39 -32L799 726L789 733Z" />
<glyph unicode="&#xd9;" horiz-adv-x="559" d="M176 700L93 220Q85 160 97 108T147 23T252 -9Q319 -9 368 21T447 104T488 220L570 700H559L476 220Q466 159 437 110T361 31T252 2Q191 2 156 32T109 112T104 220L186 700H176ZM278 925L421 769L426 773L287 933L278 925Z" />
<glyph unicode="&#xda;" horiz-adv-x="559" d="M176 700L93 220Q85 160 97 108T147 23T252 -9Q319 -9 368 21T447 104T488 220L570 700H559L476 220Q466 159 437 110T361 31T252 2Q191 2 156 32T109 112T104 220L186 700H176ZM543 924L536 932L343 774L347 769L543 924Z" />
<glyph unicode="&#xdb;" horiz-adv-x="559" d="M176 700L93 220Q85 160 97 108T147 23T252 -9Q319 -9 368 21T447 104T488 220L570 700H559L476 220Q466 159 437 110T361 31T252 2Q191 2 156 32T109 112T104 220L186 700H176ZM407 903L533 768L541 775L409 915L229
776L235 769L407 903Z" />
<glyph unicode="&#xdc;" horiz-adv-x="559" d="M176 700L93 220Q85 160 97 108T147 23T252 -9Q319 -9 368 21T447 104T488 220L570 700H559L476 220Q466 159 437 110T361 31T252 2Q191 2 156 32T109 112T104 220L186 700H176ZM462 779Q462 775 464 772T471 768Q476
768 479 771T484 779Q484 784 482 787T475 790Q471 790 467 787T462 779ZM287 779Q287 775 290 772T297 768Q301 768 305 771T309 779Q310 784 307 787T300 790Q296 790 292 787T287 779Z" />
<glyph unicode="&#xdd;" horiz-adv-x="492" d="M529 924L522 932L329 774L333 769L529 924ZM558 699L261 282L120 700H107L255 267L208 0H219L265 267L571 699H558Z" />
<glyph unicode="&#xde;" horiz-adv-x="505" d="M171 700L50 0H60L181 700H171ZM148 550H300Q360 549 405 524T473 454T486 350Q476 292 439 248T347 178T231 150H80L78 140H230Q296 142 353 168T448 240T497 350Q507 412 484 459T413 532T301 560H150L148 550Z" />
<glyph unicode="&#xdf;" horiz-adv-x="530" d="M285 -10Q343 -10 389 22T463 110T491 232Q491 282 475 310T436 352T390 375T351 395T335 429Q335 449 351 463T391 493T439 529T479 579T496 653Q496 696 477 727T426 776T353 794Q302 794 259 765T188 686T149
578L50 0H60L160 580Q169 635 196 681T264 756T353 784Q410 784 448 748T486 653Q486 611 470 583T430 534T382 498T342 467T325 430Q325 404 341 391T380 369T426 347T465 306T481 230Q481 168 455 116T385 32T285 0Q245 0 206 14T142 52L135 46Q151 29 175 17T228
-3T285 -10Z" />
<glyph unicode="&#xe0;" horiz-adv-x="525" d="M490 460L410 0H420L500 460H490ZM56 230Q48 168 63 113T119 25T222 -9Q269 -9 308 12T378 68T428 145T455 230Q461 270 456 312T432 389T382 447T303 470Q240 471 188 438T101 351T56 230ZM66 230Q76 293 109 345T194
429T305 460Q348 459 378 438T426 383T450 308T450 230Q443 189 424 149T374 75T307 21T226 1Q165 1 127 33T73 118T66 230ZM249 697L392 541L396 545L258 705L249 697Z" />
<glyph unicode="&#xe1;" horiz-adv-x="525" d="M490 460L410 0H420L500 460H490ZM56 230Q48 168 63 113T119 25T222 -9Q269 -9 308 12T378 68T428 145T455 230Q461 270 456 312T432 389T382 447T303 470Q240 471 188 438T101 351T56 230ZM66 230Q76 293 109 345T194
429T305 460Q348 459 378 438T426 383T450 308T450 230Q443 189 424 149T374 75T307 21T226 1Q165 1 127 33T73 118T66 230ZM436 696L429 704L236 546L240 541L436 696Z" />
<glyph unicode="&#xe2;" horiz-adv-x="525" d="M490 460L410 0H420L500 460H490ZM56 230Q48 168 63 113T119 25T222 -9Q269 -9 308 12T378 68T428 145T455 230Q461 270 456 312T432 389T382 447T303 470Q240 471 188 438T101 351T56 230ZM66 230Q76 293 109 345T194
429T305 460Q348 459 378 438T426 383T450 308T450 230Q443 189 424 149T374 75T307 21T226 1Q165 1 127 33T73 118T66 230ZM341 685L467 550L474 557L342 697L163 558L169 551L341 685Z" />
<glyph unicode="&#xe3;" horiz-adv-x="525" d="M490 460L410 0H420L500 460H490ZM56 230Q48 168 63 113T119 25T222 -9Q269 -9 308 12T378 68T428 145T455 230Q461 270 456 312T432 389T382 447T303 470Q240 471 188 438T101 351T56 230ZM66 230Q76 293 109 345T194
429T305 460Q348 459 378 438T426 383T450 308T450 230Q443 189 424 149T374 75T307 21T226 1Q165 1 127 33T73 118T66 230ZM195 552L205 551Q212 569 225 584T266 601Q287 601 303 590T336 567T377 555Q393 555 406 561T430 580T450 607L440 610Q427 591 413 577T377
563Q354 563 338 574T305 597T265 609Q250 609 232 600T203 578T195 552Z" />
<glyph unicode="&#xe4;" horiz-adv-x="525" d="M490 460L410 0H420L500 460H490ZM56 230Q48 168 63 113T119 25T222 -9Q269 -9 308 12T378 68T428 145T455 230Q461 270 456 312T432 389T382 447T303 470Q240 471 188 438T101 351T56 230ZM66 230Q76 293 109 345T194
429T305 460Q348 459 378 438T426 383T450 308T450 230Q443 189 424 149T374 75T307 21T226 1Q165 1 127 33T73 118T66 230ZM420 591Q420 587 422 584T429 580Q434 580 437 583T442 591Q442 596 440 599T433 602Q429 602 425 599T420 591ZM226 591Q226 587 228
584T235 580Q240 580 243 583T248 591Q248 596 246 599T239 602Q235 602 231 599T226 591Z" />
<glyph unicode="&#xe5;" horiz-adv-x="525" d="M490 460L410 0H420L500 460H490ZM56 230Q48 168 63 113T119 25T222 -9Q269 -9 308 12T378 68T428 145T455 230Q461 270 456 312T432 389T382 447T303 470Q240 471 188 438T101 351T56 230ZM66 230Q76 293 109 345T194
429T305 460Q348 459 378 438T426 383T450 308T450 230Q443 189 424 149T374 75T307 21T226 1Q165 1 127 33T73 118T66 230ZM232 631Q228 604 238 582T268 545T314 531Q341 531 366 544T408 579T430 630Q434 657 424 679T395 716T348 730Q321 730 296 717T254 681T232
631ZM241 630Q245 655 261 675T300 708T347 720Q383 719 404 693T421 630Q417 606 401 586T362 553T315 541Q279 542 258 568T241 630Z" />
<glyph unicode="&#xe6;" horiz-adv-x="825" d="M158 -10Q230 -10 283 39T361 178H356Q354 88 399 39T529 -10Q597 -10 658 21T762 107L755 113Q711 59 651 30T528 0Q468 0 429 28T374 108T370 230L364 228H787Q790 238 792 242T795 253Q805 314 785 363T723 441T624
470Q570 470 519 446T430 379T372 282H376Q397 377 374 423T282 470Q239 470 194 453T110 403L115 395Q140 416 167 430T224 452T280 460Q339 460 362 424T374 320L359 233L364 234Q347 256 314 268T237 281Q182 281 137 263T64 211T27 132Q17 71 54 31T158 -10ZM158
0Q96 0 62 37T37 132Q44 173 72 204T142 253T237 271Q279 271 312 259T361 224L359 230L354 179L358 198Q335 104 282 52T158 0ZM370 236Q380 298 417 349T508 430T621 460Q676 460 716 432T774 357T783 252Q781 238 778 234L786 238H366L370 236Z" />
<glyph unicode="&#xe7;" horiz-adv-x="474" d="M61 230Q71 293 107 345T199 429T317 460Q364 460 401 442T457 400L459 412Q438 435 402 452T318 470Q251 470 194 438T99 351T51 230Q42 168 61 113T126 25T237 -9Q287 -9 328 8T397 48L399 60Q372 39 330 20T238
1Q175 1 133 33T71 118T61 230ZM232 -3L163 -90Q182 -80 203 -72T247 -65Q263 -66 275 -74T293 -96T297 -129Q294 -155 277 -173T236 -202T188 -212Q165 -212 148 -204T114 -179L106 -185Q125 -203 143 -212T187 -222Q214 -222 240 -211T285 -179T307 -129Q311
-97 293 -77T248 -55Q226 -54 210 -61T176 -78L244 -3H232Z" />
<glyph unicode="&#xe8;" horiz-adv-x="487" d="M69 228H460Q462 234 463 241T466 254Q473 310 455 359T397 439T302 470Q253 470 210 448T135 390T84 308Q76 290 71 271T62 232Q55 173 71 118T125 27T225 -9Q279 -9 317 8T385 52T436 106L429 113Q407 86 379 60T313
18T225 1Q167 2 132 36T82 123T72 233V233Q81 295 114 346T196 429T302 459Q359 459 396 426T448 342T452 238H70L69 228ZM175 686L319 530L325 534L183 694L175 686Z" />
<glyph unicode="&#xe9;" horiz-adv-x="487" d="M69 228H460Q462 234 463 241T466 254Q473 310 455 359T397 439T302 470Q253 470 210 448T135 390T84 308Q76 290 71 271T62 232Q55 173 71 118T125 27T225 -9Q279 -9 317 8T385 52T436 106L429 113Q407 86 379 60T313
18T225 1Q167 2 132 36T82 123T72 233V233Q81 295 114 346T196 429T302 459Q359 459 396 426T448 342T452 238H70L69 228ZM487 685L480 693L290 535L295 530L487 685Z" />
<glyph unicode="&#xea;" horiz-adv-x="487" d="M69 228H460Q462 234 463 241T466 254Q473 310 455 359T397 439T302 470Q253 470 210 448T135 390T84 308Q76 290 71 271T62 232Q55 173 71 118T125 27T225 -9Q279 -9 317 8T385 52T436 106L429 113Q407 86 379 60T313
18T225 1Q167 2 132 36T82 123T72 233V233Q81 295 114 346T196 429T302 459Q359 459 396 426T448 342T452 238H70L69 228ZM330 664L456 530L463 537L331 676L152 538L158 531L330 664Z" />
<glyph unicode="&#xeb;" horiz-adv-x="487" d="M69 228H460Q462 234 463 241T466 254Q473 310 455 359T397 439T302 470Q253 470 210 448T135 390T84 308Q76 290 71 271T62 232Q55 173 71 118T125 27T225 -9Q279 -9 317 8T385 52T436 106L429 113Q407 86 379 60T313
18T225 1Q167 2 132 36T82 123T72 233V233Q81 295 114 346T196 429T302 459Q359 459 396 426T448 342T452 238H70L69 228ZM394 541Q394 537 396 534T403 530Q408 530 411 533T416 541Q416 546 414 549T406 552Q402 552 399 549T394 541ZM200 541Q200 537 202 534T209
530Q214 530 217 533T222 541Q222 546 220 549T212 552Q208 552 205 549T200 541Z" />
<glyph unicode="&#xec;" horiz-adv-x="184" d="M140 460L60 0H70L149 460H140ZM32 687L173 531L179 535L41 695L32 687Z" />
<glyph unicode="&#xed;" horiz-adv-x="184" d="M140 460L60 0H70L149 460H140ZM334 686L327 694L134 536L139 531L334 686Z" />
<glyph unicode="&#xee;" horiz-adv-x="184" d="M140 460L60 0H70L149 460H140ZM179 665L305 530L313 537L181 677L1 538L7 531L179 665Z" />
<glyph unicode="&#xef;" horiz-adv-x="184" d="M140 460L60 0H70L149 460H140ZM225 541Q224 537 227 534T234 530Q238 530 242 533T246 541Q247 546 244 549T237 552Q233 552 229 549T225 541ZM69 541Q69 537 71 534T78 530Q83 530 86 533T91 541Q91 546 89 549T82
552Q78 552 74 549T69 541Z" />
<glyph unicode="&#xf0;" horiz-adv-x="536" d="M237 -10Q286 -10 333 11T418 70T478 155T499 256Q499 278 495 299T480 349T445 422T385 533T293 700L285 694Q324 625 350 579T394 498T429 430T465 354L466 355Q441 396 399 416T300 437Q254 437 210 416T130 359T73
276T52 180Q52 121 74 79T137 13T237 -10ZM238 0Q158 0 110 49T62 180Q62 227 82 271T137 350T213 406T299 427Q362 427 404 403T468 339T489 255Q489 206 468 161T410 79T329 21T238 0ZM235 520L502 630L499 640L233 530L235 520Z" />
<glyph unicode="&#xf1;" horiz-adv-x="461" d="M145 460H135L55 0H65L145 460ZM397 320L341 0H351L407 320Q412 360 405 393T373 448T302 470Q251 470 211 443T145 373T107 281H112Q123 325 149 366T214 434T302 460Q345 460 367 440T395 389T397 320ZM175 552L184
551Q191 569 205 585T247 601Q268 601 283 590T316 567T356 555Q372 555 385 561T409 580T430 607L421 610Q408 591 394 577T358 563Q335 563 319 574T286 597T245 609Q225 609 211 601T189 579T175 552Z" />
<glyph unicode="&#xf2;" horiz-adv-x="540" d="M56 230Q47 168 66 113T131 25T242 -9Q309 -9 366 23T461 110T509 230Q518 293 498 347T434 436T322 470Q255 470 199 438T104 351T56 230ZM66 230Q76 293 112 345T204 429T322 460Q385 460 427 428T489 343T499
230Q489 167 453 115T361 32T242 1Q179 1 137 33T76 118T66 230ZM228 687L371 531L375 535L237 695L228 687Z" />
<glyph unicode="&#xf3;" horiz-adv-x="540" d="M56 230Q47 168 66 113T131 25T242 -9Q309 -9 366 23T461 110T509 230Q518 293 498 347T434 436T322 470Q255 470 199 438T104 351T56 230ZM66 230Q76 293 112 345T204 429T322 460Q385 460 427 428T489 343T499
230Q489 167 453 115T361 32T242 1Q179 1 137 33T76 118T66 230ZM493 686L486 694L293 536L296 531L493 686Z" />
<glyph unicode="&#xf4;" horiz-adv-x="540" d="M56 230Q47 168 66 113T131 25T242 -9Q309 -9 366 23T461 110T509 230Q518 293 498 347T434 436T322 470Q255 470 199 438T104 351T56 230ZM66 230Q76 293 112 345T204 429T322 460Q385 460 427 428T489 343T499
230Q489 167 453 115T361 32T242 1Q179 1 137 33T76 118T66 230ZM360 685L486 550L494 557L362 697L182 558L188 551L360 685Z" />
<glyph unicode="&#xf5;" horiz-adv-x="540" d="M56 230Q47 168 66 113T131 25T242 -9Q309 -9 366 23T461 110T509 230Q518 293 498 347T434 436T322 470Q255 470 199 438T104 351T56 230ZM66 230Q76 293 112 345T204 429T322 460Q385 460 427 428T489 343T499
230Q489 167 453 115T361 32T242 1Q179 1 137 33T76 118T66 230ZM214 552L224 551Q231 569 244 584T286 601Q307 601 323 590T356 567T396 555Q412 555 425 561T449 580T469 607L460 610Q447 591 433 577T397 563Q374 563 358 574T325 597T284 609Q269 609 252
600T223 578T214 552Z" />
<glyph unicode="&#xf6;" horiz-adv-x="540" d="M56 230Q47 168 66 113T131 25T242 -9Q309 -9 366 23T461 110T509 230Q518 293 498 347T434 436T322 470Q255 470 199 438T104 351T56 230ZM66 230Q76 293 112 345T204 429T322 460Q385 460 427 428T489 343T499
230Q489 167 453 115T361 32T242 1Q179 1 137 33T76 118T66 230ZM425 561Q424 557 427 554T434 550Q439 550 442 553T446 561Q447 566 445 569T437 572Q433 572 429 569T425 561ZM231 561Q230 557 233 554T240 550Q244 550 248 553T252 561Q253 566 251 569T243
572Q239 572 235 569T231 561Z" />
<glyph unicode="&#xf7;" horiz-adv-x="605" d="M340 451Q340 448 341 446T344 442T350 440Q352 440 355 441T360 446T362 451Q362 454 361 456T358 460T353 462Q350 462 347 461T343 457T340 451ZM268 31Q268 27 271 24T278 20Q281 20 283 21T288 26T290 31Q291
34 290 36T286 40T281 42Q278 42 275 41T271 37T268 31ZM71 235H557L558 245H73L71 235Z" />
<glyph unicode="&#xf8;" horiz-adv-x="530" d="M56 230Q47 168 66 113T131 25T242 -9Q309 -9 366 23T461 110T509 230Q518 293 498 347T434 436T322 470Q255 470 199 438T104 351T56 230ZM66 230Q76 293 112 345T204 429T322 460Q385 460 427 428T489 343T499
230Q489 167 453 115T361 32T242 1Q179 1 137 33T76 118T66 230ZM502 493L33 -30L41 -36L510 486L502 493Z" />
<glyph unicode="&#xf9;" horiz-adv-x="461" d="M341 0H351L431 460H421L341 0ZM91 150L145 460H135L81 150Q76 108 82 72T112 14T183 -9Q234 -9 274 17T342 87T379 179H373Q363 135 337 94T272 27T184 1Q140 1 118 22T91 77T91 150ZM171 697L313 541L319 545L180
705L171 697Z" />
<glyph unicode="&#xfa;" horiz-adv-x="461" d="M341 0H351L431 460H421L341 0ZM91 150L145 460H135L81 150Q76 108 82 72T112 14T183 -9Q234 -9 274 17T342 87T379 179H373Q363 135 337 94T272 27T184 1Q140 1 118 22T91 77T91 150ZM474 696L467 704L274 546L279
541L474 696Z" />
<glyph unicode="&#xfb;" horiz-adv-x="461" d="M341 0H351L431 460H421L341 0ZM91 150L145 460H135L81 150Q76 108 82 72T112 14T183 -9Q234 -9 274 17T342 87T379 179H373Q363 135 337 94T272 27T184 1Q140 1 118 22T91 77T91 150ZM320 675L444 540L453 547L321
687L142 548L147 541L320 675Z" />
<glyph unicode="&#xfc;" horiz-adv-x="461" d="M341 0H351L431 460H421L341 0ZM91 150L145 460H135L81 150Q76 108 82 72T112 14T183 -9Q234 -9 274 17T342 87T379 179H373Q363 135 337 94T272 27T184 1Q140 1 118 22T91 77T91 150ZM366 562Q365 558 368 554T376
550Q380 550 383 553T387 561Q388 566 386 569T379 572Q375 572 371 569T366 562ZM210 562Q210 558 213 554T221 550Q225 550 228 553T232 561Q233 566 231 569T224 572Q220 572 216 569T210 562Z" />
<glyph unicode="&#xfd;" horiz-adv-x="412" d="M455 460H444L180 21L191 20L73 460H61L181 21L36 -219H47L455 460ZM448 686L441 694L248 536L253 531L448 686Z" />
<glyph unicode="&#xfe;" horiz-adv-x="525" d="M22 -219L194 780H184L13 -219H22ZM494 230Q503 293 487 347T431 436T327 470Q280 470 241 449T171 393T122 316T95 230Q89 190 94 149T118 72T168 14T247 -9Q310 -10 362 22T450 110T494 230ZM484 230Q475 167 441
115T356 31T244 1Q202 2 172 23T124 78T100 152T100 230Q107 272 126 312T175 386T243 440T324 460Q385 461 423 428T477 343T484 230Z" />
<glyph unicode="&#xff;" horiz-adv-x="412" d="M455 460H444L180 21L191 20L73 460H61L181 21L36 -219H47L455 460ZM342 561Q342 557 344 554T351 550Q355 550 359 553T364 561Q364 566 361 569T354 572Q350 572 347 569T342 561ZM187 561Q187 557 189 554T195
550Q200 550 204 553T209 561Q209 566 206 569T199 572Q195 572 192 569T187 561Z" />
<glyph unicode="&#x2013;" horiz-adv-x="718" d="M86 265H669L670 275H88L86 265Z" />
<glyph unicode="&#x2014;" horiz-adv-x="864" d="M86 265H814L816 275H88L86 265Z" />
<glyph unicode="&#x2018;" horiz-adv-x="218" d="M123 471L254 699H244L110 471H123Z" />
<glyph unicode="&#x2019;" horiz-adv-x="238" d="M261 699L130 471H140L273 699H261Z" />
<glyph unicode="&#x201a;" horiz-adv-x="238" d="M136 79L5 -149H15L148 79H136Z" />
<glyph unicode="&#x201c;" horiz-adv-x="374" d="M142 471L273 699H263L130 471H142ZM278 471L409 699H399L266 471H278Z" />
<glyph unicode="&#x201d;" horiz-adv-x="374" d="M242 699L110 471H121L254 699H242ZM378 699L246 471H256L390 699H378Z" />
<glyph unicode="&#x201e;" horiz-adv-x="374" d="M136 79L4 -149H15L148 79H136ZM272 79L140 -149H150L284 79H272Z" />
<glyph unicode="&#x2022;" horiz-adv-x="291" d="M153 377Q153 373 154 371T158 367T164 365Q167 365 169 366T173 370T175 376Q175 380 174 382T170 385T164 387Q161 387 159 386T155 382T153 377Z" />
<glyph unicode="&#x2039;" horiz-adv-x="315" d="M65 255L304 482L298 489L55 256L218 20L225 27L65 255Z" />
<glyph unicode="&#x203a;" horiz-adv-x="340" d="M308 255L69 28L75 21L318 254L155 490L147 483L308 255Z" />
</font>
</defs>
</svg>
